<svg width="362" height="320" viewBox="0 0 362 320" fill="none" xmlns="http://www.w3.org/2000/svg">
<path fill-rule="evenodd" clip-rule="evenodd" d="M94.0733 153.269V159.417H90.7625V153.269H94.0733Z" fill="#840000"/>
<path fill-rule="evenodd" clip-rule="evenodd" d="M103.057 153.269V159.417H99.7464V153.269H103.057Z" fill="#840000"/>
<path fill-rule="evenodd" clip-rule="evenodd" d="M94.0733 141.537V147.685H90.7625V141.537H94.0733Z" fill="#840000"/>
<path fill-rule="evenodd" clip-rule="evenodd" d="M103.057 141.537V147.685H99.7464V141.537H103.057Z" fill="#840000"/>
<path fill-rule="evenodd" clip-rule="evenodd" d="M76.288 153.384V159.06H70.6123V153.384H76.288Z" fill="#840000"/>
<path fill-rule="evenodd" clip-rule="evenodd" d="M86.6922 153.384V159.06H81.0165V153.384H86.6922Z" fill="#840000"/>
<path fill-rule="evenodd" clip-rule="evenodd" d="M76.288 141.771V147.447H70.6123V141.771H76.288Z" fill="#840000"/>
<path fill-rule="evenodd" clip-rule="evenodd" d="M86.6922 141.771V147.447H81.0165V141.771H86.6922Z" fill="#840000"/>
<path fill-rule="evenodd" clip-rule="evenodd" d="M95.5663 214.592V200.402H116.851V214.592H95.5663Z" fill="#840000"/>
<path fill-rule="evenodd" clip-rule="evenodd" d="M132.102 214.418V200.229H153.386V214.418H132.102Z" fill="#840000"/>
<path fill-rule="evenodd" clip-rule="evenodd" d="M243.626 71.9066V57.7172H264.91V71.9066H243.626Z" fill="#840000"/>
<path fill-rule="evenodd" clip-rule="evenodd" d="M297.83 50.2258V44.0769H301.141V50.2258H297.83Z" fill="#840000"/>
<path fill-rule="evenodd" clip-rule="evenodd" d="M288.846 50.2258V44.0769H292.157V50.2258H288.846Z" fill="#840000"/>
<path fill-rule="evenodd" clip-rule="evenodd" d="M228.355 109.729V115.406H222.68V109.729H228.355Z" fill="#840000"/>
<path fill-rule="evenodd" clip-rule="evenodd" d="M238.76 109.729V115.406H233.084V109.729H238.76Z" fill="#840000"/>
<path fill-rule="evenodd" clip-rule="evenodd" d="M319.81 108.586H313.661V105.275H319.81V108.586Z" fill="#840000"/>
<path fill-rule="evenodd" clip-rule="evenodd" d="M319.81 117.573H313.661V114.262H319.81V117.573Z" fill="#840000"/>
<path fill-rule="evenodd" clip-rule="evenodd" d="M273.969 107.026H258.834V102.296H273.969V107.026Z" fill="#840000"/>
<path fill-rule="evenodd" clip-rule="evenodd" d="M273.969 136.35H258.834V131.62H273.969V136.35Z" fill="#840000"/>
<path fill-rule="evenodd" clip-rule="evenodd" d="M290.693 90.4758H278.869V86.219H290.693V90.4758Z" fill="#840000"/>
<path fill-rule="evenodd" clip-rule="evenodd" d="M290.693 104.191H278.869V99.9344H290.693V104.191Z" fill="#840000"/>
<path fill-rule="evenodd" clip-rule="evenodd" d="M299.322 67.7548V77.9664H290.913V67.7548H299.322Z" fill="#840000"/>
<path fill-rule="evenodd" clip-rule="evenodd" d="M318.549 67.7548V77.9664H310.139V67.7548H318.549Z" fill="#840000"/>
<path fill-rule="evenodd" clip-rule="evenodd" d="M304.031 96.8542V90.9419H308.76V96.8542H304.031Z" fill="#840000"/>
<path fill-rule="evenodd" clip-rule="evenodd" d="M294.573 96.8542V90.9419H299.303V96.8542H294.573Z" fill="#840000"/>
<path fill-rule="evenodd" clip-rule="evenodd" d="M258.153 142.079H274.708V150.497H258.153V142.079Z" fill="#840000"/>
<path fill-rule="evenodd" clip-rule="evenodd" d="M258.153 167.053H274.708V175.473H258.153V167.053Z" fill="#840000"/>
<path fill-rule="evenodd" clip-rule="evenodd" d="M245.852 109.493V115.641H242.541V109.493H245.852Z" fill="#840000"/>
<path fill-rule="evenodd" clip-rule="evenodd" d="M254.836 109.493V115.641H251.525V109.493H254.836Z" fill="#840000"/>
<path fill-rule="evenodd" clip-rule="evenodd" d="M319.741 126.967H313.592V123.656H319.741V126.967Z" fill="#840000"/>
<path fill-rule="evenodd" clip-rule="evenodd" d="M319.741 135.953H313.592V132.642H319.741V135.953Z" fill="#840000"/>
<path fill-rule="evenodd" clip-rule="evenodd" d="M292.68 156.312H300.248V161.041H292.68V156.312Z" fill="#840000"/>
<path fill-rule="evenodd" clip-rule="evenodd" d="M292.68 142.123H300.248V146.852H292.68V142.123Z" fill="#840000"/>
<path fill-rule="evenodd" clip-rule="evenodd" d="M316.098 50.1339V44.458H321.773V50.1339H316.098Z" fill="#840000"/>
<path fill-rule="evenodd" clip-rule="evenodd" d="M305.693 50.1339V44.458H311.37V50.1339H305.693Z" fill="#840000"/>
<path fill-rule="evenodd" clip-rule="evenodd" d="M280.301 120.027H289.761V125.702H280.301V120.027Z" fill="#840000"/>
<path fill-rule="evenodd" clip-rule="evenodd" d="M280.301 135.162H289.761V140.839H280.301V135.162Z" fill="#840000"/>
<path fill-rule="evenodd" clip-rule="evenodd" d="M296.652 104.212V100.665H300.435V104.212H296.652Z" fill="#840000"/>
<path fill-rule="evenodd" clip-rule="evenodd" d="M303.742 104.212V100.665H307.526V104.212H303.742Z" fill="#840000"/>
<path fill-rule="evenodd" clip-rule="evenodd" d="M304.828 135.728V129.816H309.557V135.728H304.828Z" fill="#840000"/>
<path fill-rule="evenodd" clip-rule="evenodd" d="M295.37 135.728V129.816H300.1V135.728H295.37Z" fill="#840000"/>
<path fill-rule="evenodd" clip-rule="evenodd" d="M282.391 154.06H288.304V158.79H282.391V154.06Z" fill="#840000"/>
<path fill-rule="evenodd" clip-rule="evenodd" d="M282.391 144.6H288.304V149.329H282.391V144.6Z" fill="#840000"/>
<path fill-rule="evenodd" clip-rule="evenodd" d="M299.841 115.656V118.73H294.828V115.656H299.841Z" fill="#840000"/>
<path fill-rule="evenodd" clip-rule="evenodd" d="M299.841 120.148V123.222H294.828V120.148H299.841Z" fill="#840000"/>
<path fill-rule="evenodd" clip-rule="evenodd" d="M299.841 111.161V114.236H294.828V111.161H299.841Z" fill="#840000"/>
<path fill-rule="evenodd" clip-rule="evenodd" d="M310.245 111.161V114.236H305.232V111.161H310.245Z" fill="#840000"/>
<path fill-rule="evenodd" clip-rule="evenodd" d="M310.245 115.656V118.73H305.232V115.656H310.245Z" fill="#840000"/>
<path fill-rule="evenodd" clip-rule="evenodd" d="M310.245 120.148V123.222H305.232V120.148H310.245Z" fill="#840000"/>
<path fill-rule="evenodd" clip-rule="evenodd" d="M95.4043 131.194H89.4922V126.464H95.4043V131.194Z" fill="#840000"/>
<path fill-rule="evenodd" clip-rule="evenodd" d="M95.4043 121.734H89.4922V117.004H95.4043V121.734Z" fill="#840000"/>
<path fill-rule="evenodd" clip-rule="evenodd" d="M134.111 294.34H139.788V300.015H134.111V294.34Z" fill="#840000"/>
<path fill-rule="evenodd" clip-rule="evenodd" d="M134.111 304.747H139.788V310.422H134.111V304.747Z" fill="#840000"/>
<path fill-rule="evenodd" clip-rule="evenodd" d="M65.1736 294.34H70.8495V300.015H65.1736V294.34Z" fill="#840000"/>
<path fill-rule="evenodd" clip-rule="evenodd" d="M65.1736 304.747H70.8494V310.422H65.1736V304.747Z" fill="#840000"/>
<path fill-rule="evenodd" clip-rule="evenodd" d="M114.188 108.168V114.08H109.458V108.168H114.188Z" fill="#840000"/>
<path fill-rule="evenodd" clip-rule="evenodd" d="M104.73 108.168V114.08H100V108.168H104.73Z" fill="#840000"/>
<path fill-rule="evenodd" clip-rule="evenodd" d="M111.132 294.34H116.808V300.015H111.132V294.34Z" fill="#840000"/>
<path fill-rule="evenodd" clip-rule="evenodd" d="M111.132 304.747H116.808V310.422H111.132V304.747Z" fill="#840000"/>
<path fill-rule="evenodd" clip-rule="evenodd" d="M126.514 89.6266H120.601V84.8968H126.514V89.6266Z" fill="#840000"/>
<path fill-rule="evenodd" clip-rule="evenodd" d="M126.514 80.1665H120.601V75.4367H126.514V80.1665Z" fill="#840000"/>
<path fill-rule="evenodd" clip-rule="evenodd" d="M23.9226 216.388H20.1387V212.131H23.9226V216.388Z" fill="#840000"/>
<path fill-rule="evenodd" clip-rule="evenodd" d="M32.9065 216.388H29.1226V212.131H32.9065V216.388Z" fill="#840000"/>
<path fill-rule="evenodd" clip-rule="evenodd" d="M28.4146 206.454H24.6307V202.198H28.4146V206.454Z" fill="#840000"/>
<path fill-rule="evenodd" clip-rule="evenodd" d="M271.975 294.34H277.65V300.015H271.975V294.34Z" fill="#840000"/>
<path fill-rule="evenodd" clip-rule="evenodd" d="M271.975 304.747H277.65V310.422H271.975V304.747Z" fill="#840000"/>
<path fill-rule="evenodd" clip-rule="evenodd" d="M226.017 294.34H231.692V300.015H226.017V294.34Z" fill="#840000"/>
<path fill-rule="evenodd" clip-rule="evenodd" d="M226.017 304.747H231.692V310.422H226.017V304.747Z" fill="#840000"/>
<path fill-rule="evenodd" clip-rule="evenodd" d="M19.2264 294.438H24.9022V300.113H19.2264V294.438Z" fill="#840000"/>
<path fill-rule="evenodd" clip-rule="evenodd" d="M19.2264 304.845H24.9022V310.521H19.2264V304.845Z" fill="#840000"/>
<path fill-rule="evenodd" clip-rule="evenodd" d="M162.986 288.347H156.836V285.036H162.986V288.347Z" fill="#840000"/>
<path fill-rule="evenodd" clip-rule="evenodd" d="M162.986 279.36H156.836V276.049H162.986V279.36Z" fill="#840000"/>
<path fill-rule="evenodd" clip-rule="evenodd" d="M298.234 284.77V278.621H301.545V284.77H298.234Z" fill="#840000"/>
<path fill-rule="evenodd" clip-rule="evenodd" d="M307.218 284.77V278.621H310.529V284.77H307.218Z" fill="#840000"/>
<path fill-rule="evenodd" clip-rule="evenodd" d="M157.09 294.34H162.767V300.015H157.09V294.34Z" fill="#840000"/>
<path fill-rule="evenodd" clip-rule="evenodd" d="M157.09 304.747H162.767V310.422H157.09V304.747Z" fill="#840000"/>
<path fill-rule="evenodd" clip-rule="evenodd" d="M208.944 288.347H202.795V285.036H208.944V288.347Z" fill="#840000"/>
<path fill-rule="evenodd" clip-rule="evenodd" d="M208.944 279.36H202.795V276.049H208.944V279.36Z" fill="#840000"/>
<path fill-rule="evenodd" clip-rule="evenodd" d="M203.038 294.34H208.713V300.015H203.038V294.34Z" fill="#840000"/>
<path fill-rule="evenodd" clip-rule="evenodd" d="M203.038 304.747H208.713V310.422H203.038V304.747Z" fill="#840000"/>
<path fill-rule="evenodd" clip-rule="evenodd" d="M185.964 279.602H179.816V276.292H185.964V279.602Z" fill="#840000"/>
<path fill-rule="evenodd" clip-rule="evenodd" d="M185.964 288.589H179.816V285.278H185.964V288.589Z" fill="#840000"/>
<path fill-rule="evenodd" clip-rule="evenodd" d="M46.7403 234.257H42.9564V230.001H46.7403V234.257Z" fill="#840000"/>
<path fill-rule="evenodd" clip-rule="evenodd" d="M55.7242 234.257H51.9403V230.001H55.7242V234.257Z" fill="#840000"/>
<path fill-rule="evenodd" clip-rule="evenodd" d="M51.2322 224.325H47.4484V220.067H51.2322V224.325Z" fill="#840000"/>
<path fill-rule="evenodd" clip-rule="evenodd" d="M98.5915 130.96V125.284H105.213V130.96H98.5915Z" fill="#840000"/>
<path fill-rule="evenodd" clip-rule="evenodd" d="M108.996 130.96V125.284H115.618V130.96H108.996Z" fill="#840000"/>
<path fill-rule="evenodd" clip-rule="evenodd" d="M108.996 123.394V117.717H115.618V123.394H108.996Z" fill="#840000"/>
<path fill-rule="evenodd" clip-rule="evenodd" d="M98.5915 123.394V117.717H105.213V123.394H98.5915Z" fill="#840000"/>
<path fill-rule="evenodd" clip-rule="evenodd" d="M277.881 279.288H271.733V275.977H277.881V279.288Z" fill="#840000"/>
<path fill-rule="evenodd" clip-rule="evenodd" d="M277.881 288.275H271.733V284.964H277.881V288.275Z" fill="#840000"/>
<path fill-rule="evenodd" clip-rule="evenodd" d="M131.155 74.9402V72.1024H138.486V74.9402H131.155Z" fill="#840000"/>
<path fill-rule="evenodd" clip-rule="evenodd" d="M131.155 80.9477V78.1099H138.486V80.9477H131.155Z" fill="#840000"/>
<path fill-rule="evenodd" clip-rule="evenodd" d="M131.155 86.9552V84.1174H138.486V86.9552H131.155Z" fill="#840000"/>
<path fill-rule="evenodd" clip-rule="evenodd" d="M131.155 92.9599V90.122H138.486V92.9599H131.155Z" fill="#840000"/>
<path fill-rule="evenodd" clip-rule="evenodd" d="M156.698 92.9599V90.122H164.029V92.9599H156.698Z" fill="#840000"/>
<path fill-rule="evenodd" clip-rule="evenodd" d="M156.698 86.9552V84.1174H164.029V86.9552H156.698Z" fill="#840000"/>
<path fill-rule="evenodd" clip-rule="evenodd" d="M156.698 80.9477V78.1099H164.029V80.9477H156.698Z" fill="#840000"/>
<path fill-rule="evenodd" clip-rule="evenodd" d="M156.698 74.9402V72.1024H164.029V74.9402H156.698Z" fill="#840000"/>
<path fill-rule="evenodd" clip-rule="evenodd" d="M18.9956 275.983H25.1443V279.294H18.9956V275.983Z" fill="#840000"/>
<path fill-rule="evenodd" clip-rule="evenodd" d="M18.9956 284.969H25.1443V288.28H18.9956V284.969Z" fill="#840000"/>
<path fill-rule="evenodd" clip-rule="evenodd" d="M42.1944 294.34H47.8701V300.015H42.1944V294.34Z" fill="#840000"/>
<path fill-rule="evenodd" clip-rule="evenodd" d="M42.1944 304.747H47.8701V310.422H42.1944V304.747Z" fill="#840000"/>
<path fill-rule="evenodd" clip-rule="evenodd" d="M149.504 169.944V164.031H154.234V169.944H149.504Z" fill="#840000"/>
<path fill-rule="evenodd" clip-rule="evenodd" d="M158.961 169.944V164.031H163.691V169.944H158.961Z" fill="#840000"/>
<path fill-rule="evenodd" clip-rule="evenodd" d="M254.902 288.347H248.754V285.036H254.902V288.347Z" fill="#840000"/>
<path fill-rule="evenodd" clip-rule="evenodd" d="M254.902 279.36H248.754V276.049H254.902V279.36Z" fill="#840000"/>
<path fill-rule="evenodd" clip-rule="evenodd" d="M117.015 288.347H110.866V285.036H117.015V288.347Z" fill="#840000"/>
<path fill-rule="evenodd" clip-rule="evenodd" d="M117.015 279.36H110.866V276.049H117.015V279.36Z" fill="#840000"/>
<path fill-rule="evenodd" clip-rule="evenodd" d="M139.996 279.36H133.846V276.049H139.996V279.36Z" fill="#840000"/>
<path fill-rule="evenodd" clip-rule="evenodd" d="M139.996 288.347H133.846V285.036H139.996V288.347Z" fill="#840000"/>
<path fill-rule="evenodd" clip-rule="evenodd" d="M42.7657 214.614H36.6168V211.303H42.7657V214.614Z" fill="#840000"/>
<path fill-rule="evenodd" clip-rule="evenodd" d="M42.7657 205.627H36.6168V202.316H42.7657V205.627Z" fill="#840000"/>
<path fill-rule="evenodd" clip-rule="evenodd" d="M65.9988 232.709H59.8501V229.398H65.9988V232.709Z" fill="#840000"/>
<path fill-rule="evenodd" clip-rule="evenodd" d="M65.9988 223.722H59.8501V220.411H65.9988V223.722Z" fill="#840000"/>
<path fill-rule="evenodd" clip-rule="evenodd" d="M43.2219 243.295V237.146H46.5328V243.295H43.2219Z" fill="#840000"/>
<path fill-rule="evenodd" clip-rule="evenodd" d="M52.2058 243.295V237.146H55.5167V243.295H52.2058Z" fill="#840000"/>
<path fill-rule="evenodd" clip-rule="evenodd" d="M167.818 76.1411H173.967V79.4519H167.818V76.1411Z" fill="#840000"/>
<path fill-rule="evenodd" clip-rule="evenodd" d="M167.818 85.1278H173.967V88.4387H167.818V85.1278Z" fill="#840000"/>
<path fill-rule="evenodd" clip-rule="evenodd" d="M180.07 294.34H185.745V300.015H180.07V294.34Z" fill="#840000"/>
<path fill-rule="evenodd" clip-rule="evenodd" d="M180.07 304.747H185.745V310.422H180.07V304.747Z" fill="#840000"/>
<path fill-rule="evenodd" clip-rule="evenodd" d="M148.945 97.5354V103.448H144.215V97.5354H148.945Z" fill="#840000"/>
<path fill-rule="evenodd" clip-rule="evenodd" d="M158.402 97.5354V103.448H153.673V97.5354H158.402Z" fill="#840000"/>
<path fill-rule="evenodd" clip-rule="evenodd" d="M41.9401 285.134H48.0888V288.445H41.9401V285.134Z" fill="#840000"/>
<path fill-rule="evenodd" clip-rule="evenodd" d="M41.9401 276.147H48.0888V279.458H41.9401V276.147Z" fill="#840000"/>
<path fill-rule="evenodd" clip-rule="evenodd" d="M71.0566 288.347H64.9079V285.036H71.0566V288.347Z" fill="#840000"/>
<path fill-rule="evenodd" clip-rule="evenodd" d="M71.0566 279.36H64.9079V276.049H71.0566V279.36Z" fill="#840000"/>
<path fill-rule="evenodd" clip-rule="evenodd" d="M94.0359 279.36H87.8872V276.049H94.0359V279.36Z" fill="#840000"/>
<path fill-rule="evenodd" clip-rule="evenodd" d="M94.0359 288.347H87.8872V285.036H94.0359V288.347Z" fill="#840000"/>
<path fill-rule="evenodd" clip-rule="evenodd" d="M145.976 177.942H139.827V174.631H145.976V177.942Z" fill="#840000"/>
<path fill-rule="evenodd" clip-rule="evenodd" d="M145.976 168.956H139.827V165.645H145.976V168.956Z" fill="#840000"/>
<path fill-rule="evenodd" clip-rule="evenodd" d="M231.923 279.36H225.774V276.049H231.923V279.36Z" fill="#840000"/>
<path fill-rule="evenodd" clip-rule="evenodd" d="M231.923 288.347H225.774V285.036H231.923V288.347Z" fill="#840000"/>
<path fill-rule="evenodd" clip-rule="evenodd" d="M88.1528 294.34H93.8285V300.015H88.1528V294.34Z" fill="#840000"/>
<path fill-rule="evenodd" clip-rule="evenodd" d="M88.1528 304.747H93.8285V310.422H88.1528V304.747Z" fill="#840000"/>
<path fill-rule="evenodd" clip-rule="evenodd" d="M160.37 109.825H162.971V117.392H160.37V109.825Z" fill="#840000"/>
<path fill-rule="evenodd" clip-rule="evenodd" d="M156.583 109.825H159.185V117.392H156.583V109.825Z" fill="#840000"/>
<path fill-rule="evenodd" clip-rule="evenodd" d="M152.795 109.825H155.396V117.392H152.795V109.825Z" fill="#840000"/>
<path fill-rule="evenodd" clip-rule="evenodd" d="M149.019 109.825H151.62V117.392H149.019V109.825Z" fill="#840000"/>
<path fill-rule="evenodd" clip-rule="evenodd" d="M145.231 109.825H147.832V117.392H145.231V109.825Z" fill="#840000"/>
<path fill-rule="evenodd" clip-rule="evenodd" d="M141.444 109.825H144.045V117.392H141.444V109.825Z" fill="#840000"/>
<path fill-rule="evenodd" clip-rule="evenodd" d="M137.668 109.825H140.27V117.392H137.668V109.825Z" fill="#840000"/>
<path fill-rule="evenodd" clip-rule="evenodd" d="M133.88 109.825H136.481V117.392H133.88V109.825Z" fill="#840000"/>
<path fill-rule="evenodd" clip-rule="evenodd" d="M124.539 121.767V119.167H132.106V121.767H124.539Z" fill="#840000"/>
<path fill-rule="evenodd" clip-rule="evenodd" d="M124.539 125.55V122.948H132.106V125.55H124.539Z" fill="#840000"/>
<path fill-rule="evenodd" clip-rule="evenodd" d="M124.539 129.334V126.733H132.106V129.334H124.539Z" fill="#840000"/>
<path fill-rule="evenodd" clip-rule="evenodd" d="M124.539 133.119V130.518H132.106V133.119H124.539Z" fill="#840000"/>
<path fill-rule="evenodd" clip-rule="evenodd" d="M124.539 136.903V134.302H132.106V136.903H124.539Z" fill="#840000"/>
<path fill-rule="evenodd" clip-rule="evenodd" d="M124.539 140.688V138.087H132.106V140.688H124.539Z" fill="#840000"/>
<path fill-rule="evenodd" clip-rule="evenodd" d="M124.539 144.471V141.869H132.106V144.471H124.539Z" fill="#840000"/>
<path fill-rule="evenodd" clip-rule="evenodd" d="M124.539 148.254V145.653H132.106V148.254H124.539Z" fill="#840000"/>
<path fill-rule="evenodd" clip-rule="evenodd" d="M133.88 150.03H136.481V157.597H133.88V150.03Z" fill="#840000"/>
<path fill-rule="evenodd" clip-rule="evenodd" d="M137.668 150.03H140.27V157.597H137.668V150.03Z" fill="#840000"/>
<path fill-rule="evenodd" clip-rule="evenodd" d="M141.444 150.03H144.045V157.597H141.444V150.03Z" fill="#840000"/>
<path fill-rule="evenodd" clip-rule="evenodd" d="M145.231 150.03H147.832V157.597H145.231V150.03Z" fill="#840000"/>
<path fill-rule="evenodd" clip-rule="evenodd" d="M149.019 150.03H151.62V157.597H149.019V150.03Z" fill="#840000"/>
<path fill-rule="evenodd" clip-rule="evenodd" d="M152.795 150.03H155.396V157.597H152.795V150.03Z" fill="#840000"/>
<path fill-rule="evenodd" clip-rule="evenodd" d="M156.583 150.03H159.185V157.597H156.583V150.03Z" fill="#840000"/>
<path fill-rule="evenodd" clip-rule="evenodd" d="M160.37 150.03H162.971V157.597H160.37V150.03Z" fill="#840000"/>
<path fill-rule="evenodd" clip-rule="evenodd" d="M164.746 148.254V145.653H172.314V148.254H164.746Z" fill="#840000"/>
<path fill-rule="evenodd" clip-rule="evenodd" d="M164.746 144.471V141.869H172.314V144.471H164.746Z" fill="#840000"/>
<path fill-rule="evenodd" clip-rule="evenodd" d="M164.746 140.688V138.087H172.314V140.688H164.746Z" fill="#840000"/>
<path fill-rule="evenodd" clip-rule="evenodd" d="M164.746 136.903V134.302H172.314V136.903H164.746Z" fill="#840000"/>
<path fill-rule="evenodd" clip-rule="evenodd" d="M164.746 133.119V130.518H172.314V133.119H164.746Z" fill="#840000"/>
<path fill-rule="evenodd" clip-rule="evenodd" d="M164.746 129.334V126.733H172.314V129.334H164.746Z" fill="#840000"/>
<path fill-rule="evenodd" clip-rule="evenodd" d="M164.746 125.55V122.948H172.314V125.55H164.746Z" fill="#840000"/>
<path fill-rule="evenodd" clip-rule="evenodd" d="M164.746 121.767V119.167H172.314V121.767H164.746Z" fill="#840000"/>
<path fill-rule="evenodd" clip-rule="evenodd" d="M20.312 225.438V219.288H23.6229V225.438H20.312Z" fill="#840000"/>
<path fill-rule="evenodd" clip-rule="evenodd" d="M29.2959 225.438V219.288H32.6068V225.438H29.2959Z" fill="#840000"/>
<path fill-rule="evenodd" clip-rule="evenodd" d="M248.996 294.34H254.671V300.015H248.996V294.34Z" fill="#840000"/>
<path fill-rule="evenodd" clip-rule="evenodd" d="M248.996 304.747H254.671V310.422H248.996V304.747Z" fill="#840000"/>
<path fill-rule="evenodd" clip-rule="evenodd" d="M299.532 136.799H294.587L293.757 135.968V128.886L293.746 128.768L293.711 128.656L293.656 128.552L293.582 128.46L292.044 126.924L291.953 126.849L291.849 126.794L291.736 126.759L291.62 126.749H280.871L280.278 126.154V120.318L280.35 120.264H299.532V136.799Z" fill="#840000"/>
<path fill-rule="evenodd" clip-rule="evenodd" d="M310.182 137.248L309.565 137.865H304.661L303.927 137.13V120.756L304.424 120.258H310.182V137.248Z" fill="#840000"/>
<path fill-rule="evenodd" clip-rule="evenodd" d="M276.836 124.66V128.294L276.842 128.364L276.864 128.432L276.896 128.495L276.942 128.549L278.833 130.441L278.888 130.485L278.951 130.519L279.018 130.539L279.089 130.547H290.173L291.617 131.991V138.462L291.624 138.533L291.644 138.601L291.677 138.663L291.722 138.718L292.905 139.9L292.959 139.945L293.021 139.979L293.09 139.999L293.159 140.006H310.896L310.966 139.999L311.034 139.979L311.097 139.945L311.151 139.9L312.096 138.954L312.142 138.9L312.174 138.837L312.196 138.77L312.202 138.699V131.636L314.002 129.837H320.916L322.833 131.754V147.419L320.561 149.69H279.207L279.136 149.698L279.068 149.718L279.006 149.752L278.952 149.796L275.51 153.238H258.401V142.247L258.394 142.177L258.374 142.109L258.34 142.047L258.165 141.783V125.132L261.618 121.678H273.854L276.836 124.66Z" fill="#840000"/>
<path fill-rule="evenodd" clip-rule="evenodd" d="M300.125 198.146L290.641 207.631H244.35L235.693 198.974V169.356L242.932 162.118H271.161L271.232 162.111L271.3 162.09L271.362 162.058L271.416 162.012L281.48 151.95H300.125V198.146Z" fill="#840000"/>
<path fill-rule="evenodd" clip-rule="evenodd" d="M336.431 59.5061V104.614L331.557 109.487H304.511L304.44 109.494L304.373 109.514L304.31 109.548L304.256 109.593L304.21 109.647L304.174 109.719L303.313 111.981L303.294 112.049L303.289 112.109V115.405L303.296 115.475L303.317 115.542L303.35 115.605L303.395 115.66L303.449 115.705L303.511 115.738L303.578 115.759L303.649 115.766H310.181V118.592H303.004L302.27 117.857V85.489L302.263 85.4187L302.243 85.3511L302.209 85.2887L302.164 85.2342L299.821 82.8907V78.9255L299.928 78.8681L300.092 78.7331L300.228 78.5684L300.329 78.3806L300.39 78.1767L300.41 77.9648V67.7532L300.39 67.5412L300.329 67.3374L300.228 67.1496L300.092 66.9849L299.928 66.8499L299.74 66.7494L299.536 66.6875L299.324 66.6666H295.266V61.4249L300.521 56.1699H333.095L336.431 59.5061Z" fill="#840000"/>
<path fill-rule="evenodd" clip-rule="evenodd" d="M296.034 311.017H289.412V304.395H296.034V311.017Z" stroke="#848400" stroke-width="0.3" stroke-linecap="round" stroke-linejoin="round"/>
<path d="M292.723 299.002C294.551 299.002 296.034 297.519 296.034 295.691C296.034 293.862 294.551 292.38 292.723 292.38C290.894 292.38 289.412 293.862 289.412 295.691C289.412 297.519 290.894 299.002 292.723 299.002Z" stroke="#848400" stroke-width="0.3" stroke-linecap="round" stroke-linejoin="round"/>
<path d="M304.743 311.014C306.572 311.014 308.054 309.531 308.054 307.703C308.054 305.874 306.572 304.392 304.743 304.392C302.915 304.392 301.433 305.874 301.433 307.703C301.433 309.531 302.915 311.014 304.743 311.014Z" stroke="#848400" stroke-width="0.3" stroke-linecap="round" stroke-linejoin="round"/>
<path d="M304.743 299.002C306.572 299.002 308.054 297.519 308.054 295.691C308.054 293.862 306.572 292.38 304.743 292.38C302.915 292.38 301.433 293.862 301.433 295.691C301.433 297.519 302.915 299.002 304.743 299.002Z" stroke="#848400" stroke-width="0.3" stroke-linecap="round" stroke-linejoin="round"/>
<path d="M316.753 311.014C318.581 311.014 320.064 309.531 320.064 307.703C320.064 305.874 318.581 304.392 316.753 304.392C314.924 304.392 313.442 305.874 313.442 307.703C313.442 309.531 314.924 311.014 316.753 311.014Z" stroke="#848400" stroke-width="0.3" stroke-linecap="round" stroke-linejoin="round"/>
<path d="M316.753 299.002C318.581 299.002 320.064 297.519 320.064 295.691C320.064 293.862 318.581 292.38 316.753 292.38C314.924 292.38 313.442 293.862 313.442 295.691C313.442 297.519 314.924 299.002 316.753 299.002Z" stroke="#848400" stroke-width="0.3" stroke-linecap="round" stroke-linejoin="round"/>
<path d="M292.727 310.107C294.054 310.107 295.13 309.031 295.13 307.704C295.13 306.377 294.054 305.301 292.727 305.301C291.4 305.301 290.324 306.377 290.324 307.704C290.324 309.031 291.4 310.107 292.727 310.107Z" stroke="#848400" stroke-width="0.3" stroke-linecap="round" stroke-linejoin="round"/>
<path d="M292.727 298.095C294.054 298.095 295.13 297.019 295.13 295.692C295.13 294.365 294.054 293.289 292.727 293.289C291.4 293.289 290.324 294.365 290.324 295.692C290.324 297.019 291.4 298.095 292.727 298.095Z" stroke="#848400" stroke-width="0.3" stroke-linecap="round" stroke-linejoin="round"/>
<path d="M304.736 310.107C306.063 310.107 307.139 309.031 307.139 307.704C307.139 306.377 306.063 305.301 304.736 305.301C303.409 305.301 302.333 306.377 302.333 307.704C302.333 309.031 303.409 310.107 304.736 310.107Z" stroke="#848400" stroke-width="0.3" stroke-linecap="round" stroke-linejoin="round"/>
<path d="M304.736 298.095C306.063 298.095 307.139 297.019 307.139 295.692C307.139 294.365 306.063 293.289 304.736 293.289C303.409 293.289 302.333 294.365 302.333 295.692C302.333 297.019 303.409 298.095 304.736 298.095Z" stroke="#848400" stroke-width="0.3" stroke-linecap="round" stroke-linejoin="round"/>
<path d="M316.757 310.107C318.084 310.107 319.16 309.031 319.16 307.704C319.16 306.377 318.084 305.301 316.757 305.301C315.43 305.301 314.354 306.377 314.354 307.704C314.354 309.031 315.43 310.107 316.757 310.107Z" stroke="#848400" stroke-width="0.3" stroke-linecap="round" stroke-linejoin="round"/>
<path d="M316.757 298.095C318.084 298.095 319.16 297.019 319.16 295.692C319.16 294.365 318.084 293.289 316.757 293.289C315.43 293.289 314.354 294.365 314.354 295.692C314.354 297.019 315.43 298.095 316.757 298.095Z" stroke="#848400" stroke-width="0.3" stroke-linecap="round" stroke-linejoin="round"/>
<path d="M112.983 46.262C114.681 46.262 116.057 44.8856 116.057 43.1877C116.057 41.4897 114.681 40.1133 112.983 40.1133C111.285 40.1133 109.908 41.4897 109.908 43.1877C109.908 44.8856 111.285 46.262 112.983 46.262Z" stroke="#848400" stroke-width="0.3" stroke-linecap="round" stroke-linejoin="round"/>
<path d="M118.999 34.247C120.697 34.247 122.073 32.8706 122.073 31.1726C122.073 29.4747 120.697 28.0983 118.999 28.0983C117.301 28.0983 115.924 29.4747 115.924 31.1726C115.924 32.8706 117.301 34.247 118.999 34.247Z" stroke="#848400" stroke-width="0.3" stroke-linecap="round" stroke-linejoin="round"/>
<path d="M125.003 46.262C126.701 46.262 128.078 44.8856 128.078 43.1877C128.078 41.4897 126.701 40.1133 125.003 40.1133C123.305 40.1133 121.929 41.4897 121.929 43.1877C121.929 44.8856 123.305 46.262 125.003 46.262Z" stroke="#848400" stroke-width="0.3" stroke-linecap="round" stroke-linejoin="round"/>
<path d="M131.008 34.247C132.706 34.247 134.082 32.8706 134.082 31.1726C134.082 29.4747 132.706 28.0983 131.008 28.0983C129.31 28.0983 127.934 29.4747 127.934 31.1726C127.934 32.8706 129.31 34.247 131.008 34.247Z" stroke="#848400" stroke-width="0.3" stroke-linecap="round" stroke-linejoin="round"/>
<path d="M137.013 46.262C138.711 46.262 140.087 44.8856 140.087 43.1877C140.087 41.4897 138.711 40.1133 137.013 40.1133C135.315 40.1133 133.938 41.4897 133.938 43.1877C133.938 44.8856 135.315 46.262 137.013 46.262Z" stroke="#848400" stroke-width="0.3" stroke-linecap="round" stroke-linejoin="round"/>
<path d="M143.017 34.247C144.715 34.247 146.092 32.8706 146.092 31.1726C146.092 29.4747 144.715 28.0983 143.017 28.0983C141.319 28.0983 139.943 29.4747 139.943 31.1726C139.943 32.8706 141.319 34.247 143.017 34.247Z" stroke="#848400" stroke-width="0.3" stroke-linecap="round" stroke-linejoin="round"/>
<path d="M149.033 46.262C150.731 46.262 152.108 44.8856 152.108 43.1877C152.108 41.4897 150.731 40.1133 149.033 40.1133C147.335 40.1133 145.959 41.4897 145.959 43.1877C145.959 44.8856 147.335 46.262 149.033 46.262Z" stroke="#848400" stroke-width="0.3" stroke-linecap="round" stroke-linejoin="round"/>
<path d="M155.038 34.247C156.736 34.247 158.112 32.8706 158.112 31.1726C158.112 29.4747 156.736 28.0983 155.038 28.0983C153.34 28.0983 151.964 29.4747 151.964 31.1726C151.964 32.8706 153.34 34.247 155.038 34.247Z" stroke="#848400" stroke-width="0.3" stroke-linecap="round" stroke-linejoin="round"/>
<path d="M161.043 46.262C162.741 46.262 164.117 44.8856 164.117 43.1877C164.117 41.4897 162.741 40.1133 161.043 40.1133C159.345 40.1133 157.968 41.4897 157.968 43.1877C157.968 44.8856 159.345 46.262 161.043 46.262Z" stroke="#848400" stroke-width="0.3" stroke-linecap="round" stroke-linejoin="round"/>
<path d="M167.047 34.247C168.745 34.247 170.122 32.8706 170.122 31.1726C170.122 29.4747 168.745 28.0983 167.047 28.0983C165.349 28.0983 163.973 29.4747 163.973 31.1726C163.973 32.8706 165.349 34.247 167.047 34.247Z" stroke="#848400" stroke-width="0.3" stroke-linecap="round" stroke-linejoin="round"/>
<path d="M173.052 46.262C174.75 46.262 176.126 44.8856 176.126 43.1877C176.126 41.4897 174.75 40.1133 173.052 40.1133C171.354 40.1133 169.978 41.4897 169.978 43.1877C169.978 44.8856 171.354 46.262 173.052 46.262Z" stroke="#848400" stroke-width="0.3" stroke-linecap="round" stroke-linejoin="round"/>
<path d="M179.068 34.247C180.766 34.247 182.142 32.8706 182.142 31.1726C182.142 29.4747 180.766 28.0983 179.068 28.0983C177.37 28.0983 175.994 29.4747 175.994 31.1726C175.994 32.8706 177.37 34.247 179.068 34.247Z" stroke="#848400" stroke-width="0.3" stroke-linecap="round" stroke-linejoin="round"/>
<path d="M185.073 46.262C186.771 46.262 188.147 44.8856 188.147 43.1877C188.147 41.4897 186.771 40.1133 185.073 40.1133C183.375 40.1133 181.998 41.4897 181.998 43.1877C181.998 44.8856 183.375 46.262 185.073 46.262Z" stroke="#848400" stroke-width="0.3" stroke-linecap="round" stroke-linejoin="round"/>
<path d="M197.082 46.262C198.78 46.262 200.156 44.8856 200.156 43.1877C200.156 41.4897 198.78 40.1133 197.082 40.1133C195.384 40.1133 194.008 41.4897 194.008 43.1877C194.008 44.8856 195.384 46.262 197.082 46.262Z" stroke="#848400" stroke-width="0.3" stroke-linecap="round" stroke-linejoin="round"/>
<path d="M209.091 46.262C210.789 46.262 212.166 44.8856 212.166 43.1877C212.166 41.4897 210.789 40.1133 209.091 40.1133C207.393 40.1133 206.017 41.4897 206.017 43.1877C206.017 44.8856 207.393 46.262 209.091 46.262Z" stroke="#848400" stroke-width="0.3" stroke-linecap="round" stroke-linejoin="round"/>
<path d="M221.112 46.262C222.81 46.262 224.186 44.8856 224.186 43.1877C224.186 41.4897 222.81 40.1133 221.112 40.1133C219.414 40.1133 218.038 41.4897 218.038 43.1877C218.038 44.8856 219.414 46.262 221.112 46.262Z" stroke="#848400" stroke-width="0.3" stroke-linecap="round" stroke-linejoin="round"/>
<path d="M191.077 34.247C192.775 34.247 194.152 32.8706 194.152 31.1726C194.152 29.4747 192.775 28.0983 191.077 28.0983C189.379 28.0983 188.003 29.4747 188.003 31.1726C188.003 32.8706 189.379 34.247 191.077 34.247Z" stroke="#848400" stroke-width="0.3" stroke-linecap="round" stroke-linejoin="round"/>
<path d="M227.117 34.247C228.815 34.247 230.191 32.8706 230.191 31.1726C230.191 29.4747 228.815 28.0983 227.117 28.0983C225.419 28.0983 224.042 29.4747 224.042 31.1726C224.042 32.8706 225.419 34.247 227.117 34.247Z" stroke="#848400" stroke-width="0.3" stroke-linecap="round" stroke-linejoin="round"/>
<path d="M215.107 34.247C216.805 34.247 218.182 32.8706 218.182 31.1726C218.182 29.4747 216.805 28.0983 215.107 28.0983C213.409 28.0983 212.033 29.4747 212.033 31.1726C212.033 32.8706 213.409 34.247 215.107 34.247Z" stroke="#848400" stroke-width="0.3" stroke-linecap="round" stroke-linejoin="round"/>
<path d="M203.087 34.247C204.785 34.247 206.161 32.8706 206.161 31.1726C206.161 29.4747 204.785 28.0983 203.087 28.0983C201.389 28.0983 200.012 29.4747 200.012 31.1726C200.012 32.8706 201.389 34.247 203.087 34.247Z" stroke="#848400" stroke-width="0.3" stroke-linecap="round" stroke-linejoin="round"/>
<path d="M112.989 45.0778C114.034 45.0778 114.881 44.2308 114.881 43.1859C114.881 42.141 114.034 41.294 112.989 41.294C111.944 41.294 111.097 42.141 111.097 43.1859C111.097 44.2308 111.944 45.0778 112.989 45.0778Z" stroke="#848400" stroke-width="0.3" stroke-linecap="round" stroke-linejoin="round"/>
<path d="M118.994 33.0656C120.039 33.0656 120.886 32.2186 120.886 31.1737C120.886 30.1288 120.039 29.2818 118.994 29.2818C117.949 29.2818 117.102 30.1288 117.102 31.1737C117.102 32.2186 117.949 33.0656 118.994 33.0656Z" stroke="#848400" stroke-width="0.3" stroke-linecap="round" stroke-linejoin="round"/>
<path d="M124.999 45.0778C126.044 45.0778 126.891 44.2308 126.891 43.1859C126.891 42.141 126.044 41.294 124.999 41.294C123.954 41.294 123.107 42.141 123.107 43.1859C123.107 44.2308 123.954 45.0778 124.999 45.0778Z" stroke="#848400" stroke-width="0.3" stroke-linecap="round" stroke-linejoin="round"/>
<path d="M131.015 33.0656C132.059 33.0656 132.907 32.2186 132.907 31.1737C132.907 30.1288 132.059 29.2818 131.015 29.2818C129.97 29.2818 129.123 30.1288 129.123 31.1737C129.123 32.2186 129.97 33.0656 131.015 33.0656Z" stroke="#848400" stroke-width="0.3" stroke-linecap="round" stroke-linejoin="round"/>
<path d="M137.019 45.0778C138.064 45.0778 138.911 44.2308 138.911 43.1859C138.911 42.141 138.064 41.294 137.019 41.294C135.974 41.294 135.127 42.141 135.127 43.1859C135.127 44.2308 135.974 45.0778 137.019 45.0778Z" stroke="#848400" stroke-width="0.3" stroke-linecap="round" stroke-linejoin="round"/>
<path d="M143.024 33.0656C144.069 33.0656 144.916 32.2186 144.916 31.1737C144.916 30.1288 144.069 29.2818 143.024 29.2818C141.979 29.2818 141.132 30.1288 141.132 31.1737C141.132 32.2186 141.979 33.0656 143.024 33.0656Z" stroke="#848400" stroke-width="0.3" stroke-linecap="round" stroke-linejoin="round"/>
<path d="M149.029 45.0778C150.074 45.0778 150.921 44.2308 150.921 43.1859C150.921 42.141 150.074 41.294 149.029 41.294C147.984 41.294 147.137 42.141 147.137 43.1859C147.137 44.2308 147.984 45.0778 149.029 45.0778Z" stroke="#848400" stroke-width="0.3" stroke-linecap="round" stroke-linejoin="round"/>
<path d="M155.033 33.0656C156.078 33.0656 156.925 32.2186 156.925 31.1737C156.925 30.1288 156.078 29.2818 155.033 29.2818C153.989 29.2818 153.141 30.1288 153.141 31.1737C153.141 32.2186 153.989 33.0656 155.033 33.0656Z" stroke="#848400" stroke-width="0.3" stroke-linecap="round" stroke-linejoin="round"/>
<path d="M161.049 45.0778C162.094 45.0778 162.941 44.2308 162.941 43.1859C162.941 42.141 162.094 41.294 161.049 41.294C160.004 41.294 159.157 42.141 159.157 43.1859C159.157 44.2308 160.004 45.0778 161.049 45.0778Z" stroke="#848400" stroke-width="0.3" stroke-linecap="round" stroke-linejoin="round"/>
<path d="M167.054 33.0656C168.099 33.0656 168.946 32.2186 168.946 31.1737C168.946 30.1288 168.099 29.2818 167.054 29.2818C166.009 29.2818 165.162 30.1288 165.162 31.1737C165.162 32.2186 166.009 33.0656 167.054 33.0656Z" stroke="#848400" stroke-width="0.3" stroke-linecap="round" stroke-linejoin="round"/>
<path d="M173.059 45.0778C174.103 45.0778 174.95 44.2308 174.95 43.1859C174.95 42.141 174.103 41.294 173.059 41.294C172.014 41.294 171.167 42.141 171.167 43.1859C171.167 44.2308 172.014 45.0778 173.059 45.0778Z" stroke="#848400" stroke-width="0.3" stroke-linecap="round" stroke-linejoin="round"/>
<path d="M179.063 33.0656C180.108 33.0656 180.955 32.2186 180.955 31.1737C180.955 30.1288 180.108 29.2818 179.063 29.2818C178.019 29.2818 177.171 30.1288 177.171 31.1737C177.171 32.2186 178.019 33.0656 179.063 33.0656Z" stroke="#848400" stroke-width="0.3" stroke-linecap="round" stroke-linejoin="round"/>
<path d="M185.068 45.0778C186.113 45.0778 186.96 44.2308 186.96 43.1859C186.96 42.141 186.113 41.294 185.068 41.294C184.023 41.294 183.176 42.141 183.176 43.1859C183.176 44.2308 184.023 45.0778 185.068 45.0778Z" stroke="#848400" stroke-width="0.3" stroke-linecap="round" stroke-linejoin="round"/>
<path d="M197.089 45.0778C198.133 45.0778 198.98 44.2308 198.98 43.1859C198.98 42.141 198.133 41.294 197.089 41.294C196.044 41.294 195.197 42.141 195.197 43.1859C195.197 44.2308 196.044 45.0778 197.089 45.0778Z" stroke="#848400" stroke-width="0.3" stroke-linecap="round" stroke-linejoin="round"/>
<path d="M209.098 45.0778C210.143 45.0778 210.99 44.2308 210.99 43.1859C210.99 42.141 210.143 41.294 209.098 41.294C208.053 41.294 207.206 42.141 207.206 43.1859C207.206 44.2308 208.053 45.0778 209.098 45.0778Z" stroke="#848400" stroke-width="0.3" stroke-linecap="round" stroke-linejoin="round"/>
<path d="M221.119 45.0778C222.163 45.0778 223.011 44.2308 223.011 43.1859C223.011 42.141 222.163 41.294 221.119 41.294C220.074 41.294 219.227 42.141 219.227 43.1859C219.227 44.2308 220.074 45.0778 221.119 45.0778Z" stroke="#848400" stroke-width="0.3" stroke-linecap="round" stroke-linejoin="round"/>
<path d="M191.084 33.0656C192.129 33.0656 192.976 32.2186 192.976 31.1737C192.976 30.1288 192.129 29.2818 191.084 29.2818C190.039 29.2818 189.192 30.1288 189.192 31.1737C189.192 32.2186 190.039 33.0656 191.084 33.0656Z" stroke="#848400" stroke-width="0.3" stroke-linecap="round" stroke-linejoin="round"/>
<path d="M227.123 33.0656C228.168 33.0656 229.015 32.2186 229.015 31.1737C229.015 30.1288 228.168 29.2818 227.123 29.2818C226.079 29.2818 225.232 30.1288 225.232 31.1737C225.232 32.2186 226.079 33.0656 227.123 33.0656Z" stroke="#848400" stroke-width="0.3" stroke-linecap="round" stroke-linejoin="round"/>
<path d="M215.103 33.0656C216.148 33.0656 216.995 32.2186 216.995 31.1737C216.995 30.1288 216.148 29.2818 215.103 29.2818C214.058 29.2818 213.211 30.1288 213.211 31.1737C213.211 32.2186 214.058 33.0656 215.103 33.0656Z" stroke="#848400" stroke-width="0.3" stroke-linecap="round" stroke-linejoin="round"/>
<path d="M203.093 33.0656C204.138 33.0656 204.985 32.2186 204.985 31.1737C204.985 30.1288 204.138 29.2818 203.093 29.2818C202.049 29.2818 201.202 30.1288 201.202 31.1737C201.202 32.2186 202.049 33.0656 203.093 33.0656Z" stroke="#848400" stroke-width="0.3" stroke-linecap="round" stroke-linejoin="round"/>
<path d="M78.1526 36.7014C80.5422 36.7014 82.834 35.7521 84.5238 34.0624C86.2135 32.3726 87.1628 30.0808 87.1628 27.6911M18.6835 319.017H343.053M258.95 18.6742V6.66052M246.94 0.653015H252.947M294.989 18.6727H313.01M0.658203 300.996V54.7149M313.014 18.6727H343.049M99.1688 18.6727H240.93M246.943 0.658794C245.35 0.658794 243.822 1.29166 242.695 2.41816C241.569 3.54466 240.936 5.07253 240.936 6.66564M361.074 300.996V36.6952M258.95 18.6727H276.97M361.07 36.699C361.07 31.9197 359.171 27.3361 355.792 23.9566C352.412 20.5771 347.829 18.6785 343.049 18.6785M18.6902 36.701C13.9108 36.701 9.32724 38.5996 5.94773 41.9791C2.56822 45.3586 0.669634 49.9422 0.669634 54.7215M343.049 319.021C347.829 319.021 352.412 317.122 355.792 313.742C359.171 310.363 361.07 305.779 361.07 301M96.1665 18.6727H99.1699M96.1699 18.6785C93.7802 18.6785 91.4884 19.6278 89.7986 21.3175C88.1089 23.0073 87.1596 25.2991 87.1596 27.6887M0.669634 301C0.669634 305.779 2.56822 310.363 5.94773 313.742C9.32724 317.122 13.9108 319.021 18.6902 319.021M276.975 18.6727H294.996M240.936 18.6742V6.66052M18.6835 36.6952H78.1513M258.963 6.66564C258.963 5.07253 258.33 3.54466 257.204 2.41816C256.077 1.29166 254.55 0.658794 252.956 0.658794" stroke="#848400" stroke-linecap="round" stroke-linejoin="round"/>
</svg>
