<?xml version="1.0" encoding="utf-8" standalone="no"?>
<!DOCTYPE svg PUBLIC "-//W3C//DTD SVG 1.1//EN"
  "http://www.w3.org/Graphics/SVG/1.1/DTD/svg11.dtd">
<!-- Created with matplotlib (https://matplotlib.org/) -->
<svg height="288pt" version="1.1" viewBox="0 0 432 288" width="432pt" xmlns="http://www.w3.org/2000/svg" xmlns:xlink="http://www.w3.org/1999/xlink">
 <defs>
  <style type="text/css">
*{stroke-linecap:butt;stroke-linejoin:round;}
  </style>
 </defs>
 <g id="figure_1">
  <g id="patch_1">
   <path d="M 0 288
L 432 288
L 432 0
L 0 0
z
" style="fill:none;"/>
  </g>
  <g id="axes_1">
   <g id="patch_2">
    <path d="M 54 121.536
L 388.8 121.536
L 388.8 34.56
L 54 34.56
z
" style="fill:none;"/>
   </g>
   <g id="matplotlib.axis_1">
    <g id="xtick_1">
     <g id="line2d_1">
      <defs>
       <path d="M 0 0
L 0 3.5
" id="ma6780f9d72" style="stroke:#666666;stroke-width:0.8;"/>
      </defs>
      <g>
       <use style="stroke:#666666;stroke-width:0.8;" x="54" xlink:href="#ma6780f9d72" y="121.536"/>
      </g>
     </g>
     <g id="text_1">
      <!-- 190 -->
      <defs>
       <path d="M 12.40625 8.296875
L 28.515625 8.296875
L 28.515625 63.921875
L 10.984375 60.40625
L 10.984375 69.390625
L 28.421875 72.90625
L 38.28125 72.90625
L 38.28125 8.296875
L 54.390625 8.296875
L 54.390625 0
L 12.40625 0
z
" id="DejaVuSans-49"/>
       <path d="M 10.984375 1.515625
L 10.984375 10.5
Q 14.703125 8.734375 18.5 7.8125
Q 22.3125 6.890625 25.984375 6.890625
Q 35.75 6.890625 40.890625 13.453125
Q 46.046875 20.015625 46.78125 33.40625
Q 43.953125 29.203125 39.59375 26.953125
Q 35.25 24.703125 29.984375 24.703125
Q 19.046875 24.703125 12.671875 31.3125
Q 6.296875 37.9375 6.296875 49.421875
Q 6.296875 60.640625 12.9375 67.421875
Q 19.578125 74.21875 30.609375 74.21875
Q 43.265625 74.21875 49.921875 64.515625
Q 56.59375 54.828125 56.59375 36.375
Q 56.59375 19.140625 48.40625 8.859375
Q 40.234375 -1.421875 26.421875 -1.421875
Q 22.703125 -1.421875 18.890625 -0.6875
Q 15.09375 0.046875 10.984375 1.515625
z
M 30.609375 32.421875
Q 37.25 32.421875 41.125 36.953125
Q 45.015625 41.5 45.015625 49.421875
Q 45.015625 57.28125 41.125 61.84375
Q 37.25 66.40625 30.609375 66.40625
Q 23.96875 66.40625 20.09375 61.84375
Q 16.21875 57.28125 16.21875 49.421875
Q 16.21875 41.5 20.09375 36.953125
Q 23.96875 32.421875 30.609375 32.421875
z
" id="DejaVuSans-57"/>
       <path d="M 31.78125 66.40625
Q 24.171875 66.40625 20.328125 58.90625
Q 16.5 51.421875 16.5 36.375
Q 16.5 21.390625 20.328125 13.890625
Q 24.171875 6.390625 31.78125 6.390625
Q 39.453125 6.390625 43.28125 13.890625
Q 47.125 21.390625 47.125 36.375
Q 47.125 51.421875 43.28125 58.90625
Q 39.453125 66.40625 31.78125 66.40625
z
M 31.78125 74.21875
Q 44.046875 74.21875 50.515625 64.515625
Q 56.984375 54.828125 56.984375 36.375
Q 56.984375 17.96875 50.515625 8.265625
Q 44.046875 -1.421875 31.78125 -1.421875
Q 19.53125 -1.421875 13.0625 8.265625
Q 6.59375 17.96875 6.59375 36.375
Q 6.59375 54.828125 13.0625 64.515625
Q 19.53125 74.21875 31.78125 74.21875
z
" id="DejaVuSans-48"/>
      </defs>
      <g transform="translate(44.45625 136.134437)scale(0.1 -0.1)">
       <use xlink:href="#DejaVuSans-49"/>
       <use x="63.623047" xlink:href="#DejaVuSans-57"/>
       <use x="127.246094" xlink:href="#DejaVuSans-48"/>
      </g>
     </g>
    </g>
    <g id="xtick_2">
     <g id="line2d_2">
      <g>
       <use style="stroke:#666666;stroke-width:0.8;" x="120.96" xlink:href="#ma6780f9d72" y="121.536"/>
      </g>
     </g>
     <g id="text_2">
      <!-- 200 -->
      <defs>
       <path d="M 19.1875 8.296875
L 53.609375 8.296875
L 53.609375 0
L 7.328125 0
L 7.328125 8.296875
Q 12.9375 14.109375 22.625 23.890625
Q 32.328125 33.6875 34.8125 36.53125
Q 39.546875 41.84375 41.421875 45.53125
Q 43.3125 49.21875 43.3125 52.78125
Q 43.3125 58.59375 39.234375 62.25
Q 35.15625 65.921875 28.609375 65.921875
Q 23.96875 65.921875 18.8125 64.3125
Q 13.671875 62.703125 7.8125 59.421875
L 7.8125 69.390625
Q 13.765625 71.78125 18.9375 73
Q 24.125 74.21875 28.421875 74.21875
Q 39.75 74.21875 46.484375 68.546875
Q 53.21875 62.890625 53.21875 53.421875
Q 53.21875 48.921875 51.53125 44.890625
Q 49.859375 40.875 45.40625 35.40625
Q 44.1875 33.984375 37.640625 27.21875
Q 31.109375 20.453125 19.1875 8.296875
z
" id="DejaVuSans-50"/>
      </defs>
      <g transform="translate(111.41625 136.134437)scale(0.1 -0.1)">
       <use xlink:href="#DejaVuSans-50"/>
       <use x="63.623047" xlink:href="#DejaVuSans-48"/>
       <use x="127.246094" xlink:href="#DejaVuSans-48"/>
      </g>
     </g>
    </g>
    <g id="xtick_3">
     <g id="line2d_3">
      <g>
       <use style="stroke:#666666;stroke-width:0.8;" x="187.92" xlink:href="#ma6780f9d72" y="121.536"/>
      </g>
     </g>
     <g id="text_3">
      <!-- 210 -->
      <g transform="translate(178.37625 136.134437)scale(0.1 -0.1)">
       <use xlink:href="#DejaVuSans-50"/>
       <use x="63.623047" xlink:href="#DejaVuSans-49"/>
       <use x="127.246094" xlink:href="#DejaVuSans-48"/>
      </g>
     </g>
    </g>
    <g id="xtick_4">
     <g id="line2d_4">
      <g>
       <use style="stroke:#666666;stroke-width:0.8;" x="254.88" xlink:href="#ma6780f9d72" y="121.536"/>
      </g>
     </g>
     <g id="text_4">
      <!-- 220 -->
      <g transform="translate(245.33625 136.134437)scale(0.1 -0.1)">
       <use xlink:href="#DejaVuSans-50"/>
       <use x="63.623047" xlink:href="#DejaVuSans-50"/>
       <use x="127.246094" xlink:href="#DejaVuSans-48"/>
      </g>
     </g>
    </g>
    <g id="xtick_5">
     <g id="line2d_5">
      <g>
       <use style="stroke:#666666;stroke-width:0.8;" x="321.84" xlink:href="#ma6780f9d72" y="121.536"/>
      </g>
     </g>
     <g id="text_5">
      <!-- 230 -->
      <defs>
       <path d="M 40.578125 39.3125
Q 47.65625 37.796875 51.625 33
Q 55.609375 28.21875 55.609375 21.1875
Q 55.609375 10.40625 48.1875 4.484375
Q 40.765625 -1.421875 27.09375 -1.421875
Q 22.515625 -1.421875 17.65625 -0.515625
Q 12.796875 0.390625 7.625 2.203125
L 7.625 11.71875
Q 11.71875 9.328125 16.59375 8.109375
Q 21.484375 6.890625 26.8125 6.890625
Q 36.078125 6.890625 40.9375 10.546875
Q 45.796875 14.203125 45.796875 21.1875
Q 45.796875 27.640625 41.28125 31.265625
Q 36.765625 34.90625 28.71875 34.90625
L 20.21875 34.90625
L 20.21875 43.015625
L 29.109375 43.015625
Q 36.375 43.015625 40.234375 45.921875
Q 44.09375 48.828125 44.09375 54.296875
Q 44.09375 59.90625 40.109375 62.90625
Q 36.140625 65.921875 28.71875 65.921875
Q 24.65625 65.921875 20.015625 65.03125
Q 15.375 64.15625 9.8125 62.3125
L 9.8125 71.09375
Q 15.4375 72.65625 20.34375 73.4375
Q 25.25 74.21875 29.59375 74.21875
Q 40.828125 74.21875 47.359375 69.109375
Q 53.90625 64.015625 53.90625 55.328125
Q 53.90625 49.265625 50.4375 45.09375
Q 46.96875 40.921875 40.578125 39.3125
z
" id="DejaVuSans-51"/>
      </defs>
      <g transform="translate(312.29625 136.134437)scale(0.1 -0.1)">
       <use xlink:href="#DejaVuSans-50"/>
       <use x="63.623047" xlink:href="#DejaVuSans-51"/>
       <use x="127.246094" xlink:href="#DejaVuSans-48"/>
      </g>
     </g>
    </g>
    <g id="xtick_6">
     <g id="line2d_6">
      <g>
       <use style="stroke:#666666;stroke-width:0.8;" x="388.8" xlink:href="#ma6780f9d72" y="121.536"/>
      </g>
     </g>
     <g id="text_6">
      <!-- 240 -->
      <defs>
       <path d="M 37.796875 64.3125
L 12.890625 25.390625
L 37.796875 25.390625
z
M 35.203125 72.90625
L 47.609375 72.90625
L 47.609375 25.390625
L 58.015625 25.390625
L 58.015625 17.1875
L 47.609375 17.1875
L 47.609375 0
L 37.796875 0
L 37.796875 17.1875
L 4.890625 17.1875
L 4.890625 26.703125
z
" id="DejaVuSans-52"/>
      </defs>
      <g transform="translate(379.25625 136.134437)scale(0.1 -0.1)">
       <use xlink:href="#DejaVuSans-50"/>
       <use x="63.623047" xlink:href="#DejaVuSans-52"/>
       <use x="127.246094" xlink:href="#DejaVuSans-48"/>
      </g>
     </g>
    </g>
   </g>
   <g id="matplotlib.axis_2">
    <g id="ytick_1">
     <g id="line2d_7">
      <defs>
       <path d="M 0 0
L -3.5 0
" id="m840474a789" style="stroke:#666666;stroke-width:0.8;"/>
      </defs>
      <g>
       <use style="stroke:#666666;stroke-width:0.8;" x="54" xlink:href="#m840474a789" y="115.172759"/>
      </g>
     </g>
     <g id="text_7">
      <!-- 0 -->
      <g transform="translate(40.6375 118.971978)scale(0.1 -0.1)">
       <use xlink:href="#DejaVuSans-48"/>
      </g>
     </g>
    </g>
    <g id="ytick_2">
     <g id="line2d_8">
      <g>
       <use style="stroke:#666666;stroke-width:0.8;" x="54" xlink:href="#m840474a789" y="85.089391"/>
      </g>
     </g>
     <g id="text_8">
      <!-- 2 -->
      <g transform="translate(40.6375 88.888609)scale(0.1 -0.1)">
       <use xlink:href="#DejaVuSans-50"/>
      </g>
     </g>
    </g>
    <g id="ytick_3">
     <g id="line2d_9">
      <g>
       <use style="stroke:#666666;stroke-width:0.8;" x="54" xlink:href="#m840474a789" y="55.006023"/>
      </g>
     </g>
     <g id="text_9">
      <!-- 4 -->
      <g transform="translate(40.6375 58.805241)scale(0.1 -0.1)">
       <use xlink:href="#DejaVuSans-52"/>
      </g>
     </g>
    </g>
   </g>
   <g id="line2d_10">
    <path clip-path="url(#p699f8b456a)" d="M 53.53128 39.625537
L 55.27224 39.569933
L 56.14272 39.736746
L 60.49512 39.569933
L 73.55232 39.569933
L 74.4228 39.681142
L 77.03424 39.458725
L 80.51616 39.625537
L 82.25712 39.514329
L 83.1276 39.458725
L 84.86856 39.625537
L 94.44384 39.625537
L 95.31432 39.736746
L 97.92576 39.625537
L 98.79624 90.114099
L 99.66672 115.302776
L 100.5372 116.025629
L 102.27816 116.748483
L 104.8896 116.9709
L 106.63056 116.9709
L 107.50104 117.082108
L 110.98296 116.915296
L 112.72392 116.915296
L 113.5944 116.915296
L 114.46488 116.804087
L 115.33536 116.915296
L 116.20584 116.804087
L 119.68776 116.915296
L 122.2992 116.859692
L 125.78112 116.804087
L 126.6516 116.637275
L 127.52208 116.804087
L 128.39256 116.804087
L 129.26304 116.692879
L 132.74496 116.804087
L 136.22688 116.804087
L 137.09736 116.915296
L 140.57928 116.804087
L 147.54312 116.748483
L 149.28408 116.692879
L 150.15456 116.804087
L 151.89552 116.804087
L 157.98888 116.748483
L 158.85936 117.193316
L 159.72984 116.581671
L 160.60032 116.414858
L 161.4708 116.692879
L 164.95272 116.804087
L 166.69368 116.748483
L 169.30512 116.804087
L 170.1756 116.804087
L 171.04608 116.692879
L 175.39848 116.859692
L 178.00992 116.804087
L 189.32616 116.748483
L 190.19664 116.915296
L 191.06712 116.748483
L 191.9376 116.915296
L 193.67856 116.526067
L 195.41952 116.804087
L 198.03096 116.748483
L 204.12432 116.804087
L 204.9948 116.915296
L 206.73576 116.804087
L 208.47672 116.804087
L 209.3472 67.594421
L 210.21768 41.349266
L 211.08816 40.348391
L 211.95864 39.903558
L 213.6996 39.625537
L 217.18152 39.403121
L 218.052 39.514329
L 220.66344 39.458725
L 221.53392 39.458725
L 222.4044 39.625537
L 224.14536 39.514329
L 225.01584 39.569933
L 225.88632 39.959162
L 226.7568 39.569933
L 227.62728 39.347517
L 228.49776 39.569933
L 232.85016 39.625537
L 236.33208 39.79235
L 238.07304 39.681142
L 239.814 39.847954
L 244.1664 39.681142
L 245.90736 39.79235
L 250.25976 39.625537
L 252.00072 39.736746
L 252.8712 39.625537
L 255.48264 39.79235
L 257.2236 39.681142
L 258.09408 39.736746
L 258.96456 40.181579
L 259.83504 39.79235
L 260.70552 39.569933
L 262.44648 39.736746
L 265.05792 39.625537
L 267.66936 39.736746
L 271.15128 39.569933
L 272.02176 39.736746
L 276.37416 39.569933
L 279.85608 39.681142
L 282.46752 39.625537
L 283.338 39.681142
L 285.07896 39.458725
L 288.56088 39.569933
L 289.43136 39.569933
L 290.30184 39.458725
L 292.91328 39.514329
L 293.78376 39.514329
L 294.65424 39.736746
L 299.87712 39.514329
L 301.61808 39.514329
L 304.22952 39.458725
L 305.1 39.458725
L 305.97048 39.569933
L 309.4524 39.403121
L 311.19336 39.458725
L 314.67528 39.347517
L 316.41624 39.458725
L 318.1572 39.458725
L 319.89816 39.514329
L 322.5096 39.625537
L 323.38008 39.514329
L 324.25056 39.625537
L 325.12104 39.569933
L 325.99152 39.959162
L 327.73248 39.291913
L 330.34392 39.625537
L 336.43728 39.347517
L 337.30776 39.514329
L 339.04872 39.403121
L 339.9192 39.403121
L 340.78968 81.995894
L 341.66016 115.580796
L 342.53064 116.192442
L 344.2716 116.414858
L 347.75352 116.804087
L 350.36496 116.804087
L 351.23544 116.692879
L 352.9764 116.748483
L 356.45832 116.637275
L 359.06976 116.692879
L 360.81072 116.30365
L 361.6812 116.748483
L 362.55168 116.804087
L 363.42216 116.581671
L 364.29264 116.637275
L 366.0336 116.526067
L 367.77456 116.526067
L 369.51552 116.581671
L 370.386 116.414858
L 372.99744 116.526067
L 374.7384 116.526067
L 379.96128 116.526067
L 380.83176 116.637275
L 381.70224 116.526067
L 385.18416 116.637275
L 386.92512 116.581671
L 387.7956 116.526067
L 389.53656 116.637275
L 389.53656 116.637275
" style="fill:none;stroke:#1f77b4;stroke-linecap:square;stroke-width:1.5;"/>
   </g>
   <g id="patch_3">
    <path d="M 54 121.536
L 54 34.56
" style="fill:none;stroke:#666666;stroke-linecap:square;stroke-linejoin:miter;stroke-width:0.8;"/>
   </g>
   <g id="patch_4">
    <path d="M 388.8 121.536
L 388.8 34.56
" style="fill:none;stroke:#666666;stroke-linecap:square;stroke-linejoin:miter;stroke-width:0.8;"/>
   </g>
   <g id="patch_5">
    <path d="M 54 121.536
L 388.8 121.536
" style="fill:none;stroke:#666666;stroke-linecap:square;stroke-linejoin:miter;stroke-width:0.8;"/>
   </g>
   <g id="patch_6">
    <path d="M 54 34.56
L 388.8 34.56
" style="fill:none;stroke:#666666;stroke-linecap:square;stroke-linejoin:miter;stroke-width:0.8;"/>
   </g>
  </g>
  <g id="axes_2">
   <g id="patch_7">
    <path d="M 54 252
L 388.8 252
L 388.8 165.024
L 54 165.024
z
" style="fill:none;"/>
   </g>
   <g id="matplotlib.axis_3">
    <g id="xtick_7">
     <g id="line2d_11">
      <g>
       <use style="stroke:#666666;stroke-width:0.8;" x="54" xlink:href="#ma6780f9d72" y="252"/>
      </g>
     </g>
     <g id="text_10">
      <!-- 190 -->
      <g transform="translate(44.45625 266.598437)scale(0.1 -0.1)">
       <use xlink:href="#DejaVuSans-49"/>
       <use x="63.623047" xlink:href="#DejaVuSans-57"/>
       <use x="127.246094" xlink:href="#DejaVuSans-48"/>
      </g>
     </g>
    </g>
    <g id="xtick_8">
     <g id="line2d_12">
      <g>
       <use style="stroke:#666666;stroke-width:0.8;" x="120.96" xlink:href="#ma6780f9d72" y="252"/>
      </g>
     </g>
     <g id="text_11">
      <!-- 200 -->
      <g transform="translate(111.41625 266.598437)scale(0.1 -0.1)">
       <use xlink:href="#DejaVuSans-50"/>
       <use x="63.623047" xlink:href="#DejaVuSans-48"/>
       <use x="127.246094" xlink:href="#DejaVuSans-48"/>
      </g>
     </g>
    </g>
    <g id="xtick_9">
     <g id="line2d_13">
      <g>
       <use style="stroke:#666666;stroke-width:0.8;" x="187.92" xlink:href="#ma6780f9d72" y="252"/>
      </g>
     </g>
     <g id="text_12">
      <!-- 210 -->
      <g transform="translate(178.37625 266.598437)scale(0.1 -0.1)">
       <use xlink:href="#DejaVuSans-50"/>
       <use x="63.623047" xlink:href="#DejaVuSans-49"/>
       <use x="127.246094" xlink:href="#DejaVuSans-48"/>
      </g>
     </g>
    </g>
    <g id="xtick_10">
     <g id="line2d_14">
      <g>
       <use style="stroke:#666666;stroke-width:0.8;" x="254.88" xlink:href="#ma6780f9d72" y="252"/>
      </g>
     </g>
     <g id="text_13">
      <!-- 220 -->
      <g transform="translate(245.33625 266.598437)scale(0.1 -0.1)">
       <use xlink:href="#DejaVuSans-50"/>
       <use x="63.623047" xlink:href="#DejaVuSans-50"/>
       <use x="127.246094" xlink:href="#DejaVuSans-48"/>
      </g>
     </g>
    </g>
    <g id="xtick_11">
     <g id="line2d_15">
      <g>
       <use style="stroke:#666666;stroke-width:0.8;" x="321.84" xlink:href="#ma6780f9d72" y="252"/>
      </g>
     </g>
     <g id="text_14">
      <!-- 230 -->
      <g transform="translate(312.29625 266.598437)scale(0.1 -0.1)">
       <use xlink:href="#DejaVuSans-50"/>
       <use x="63.623047" xlink:href="#DejaVuSans-51"/>
       <use x="127.246094" xlink:href="#DejaVuSans-48"/>
      </g>
     </g>
    </g>
    <g id="xtick_12">
     <g id="line2d_16">
      <g>
       <use style="stroke:#666666;stroke-width:0.8;" x="388.8" xlink:href="#ma6780f9d72" y="252"/>
      </g>
     </g>
     <g id="text_15">
      <!-- 240 -->
      <g transform="translate(379.25625 266.598437)scale(0.1 -0.1)">
       <use xlink:href="#DejaVuSans-50"/>
       <use x="63.623047" xlink:href="#DejaVuSans-52"/>
       <use x="127.246094" xlink:href="#DejaVuSans-48"/>
      </g>
     </g>
    </g>
   </g>
   <g id="matplotlib.axis_4">
    <g id="ytick_4">
     <g id="line2d_17">
      <g>
       <use style="stroke:#666666;stroke-width:0.8;" x="54" xlink:href="#m840474a789" y="245.169475"/>
      </g>
     </g>
     <g id="text_16">
      <!-- 0 -->
      <g transform="translate(40.6375 248.968694)scale(0.1 -0.1)">
       <use xlink:href="#DejaVuSans-48"/>
      </g>
     </g>
    </g>
    <g id="ytick_5">
     <g id="line2d_18">
      <g>
       <use style="stroke:#666666;stroke-width:0.8;" x="54" xlink:href="#m840474a789" y="215.364565"/>
      </g>
     </g>
     <g id="text_17">
      <!-- 2 -->
      <g transform="translate(40.6375 219.163784)scale(0.1 -0.1)">
       <use xlink:href="#DejaVuSans-50"/>
      </g>
     </g>
    </g>
    <g id="ytick_6">
     <g id="line2d_19">
      <g>
       <use style="stroke:#666666;stroke-width:0.8;" x="54" xlink:href="#m840474a789" y="185.559654"/>
      </g>
     </g>
     <g id="text_18">
      <!-- 4 -->
      <g transform="translate(40.6375 189.358873)scale(0.1 -0.1)">
       <use xlink:href="#DejaVuSans-52"/>
      </g>
     </g>
    </g>
   </g>
   <g id="line2d_20">
    <path clip-path="url(#p0f687d4eeb)" d="M 53.53128 170.124175
L 54.40176 170.178781
L 55.27224 170.069569
L 57.88368 170.124175
L 58.75416 170.014963
L 59.62464 170.124175
L 60.49512 170.014963
L 61.3656 170.124175
L 64.84752 170.014963
L 66.58848 170.124175
L 76.16376 170.124175
L 77.03424 169.960358
L 78.7752 170.233386
L 80.51616 170.124175
L 81.38664 170.069569
L 82.25712 170.178781
L 83.1276 170.124175
L 83.99808 170.287992
L 85.73904 170.178781
L 97.92576 170.124175
L 98.79624 171.216289
L 99.66672 169.632723
L 101.40768 170.233386
L 123.16968 170.124175
L 124.04016 170.069569
L 124.91064 195.297414
L 125.78112 245.971528
L 127.52208 246.790614
L 131.004 247.172854
L 137.09736 247.063642
L 139.7088 247.009037
L 141.44976 247.009037
L 144.93168 247.009037
L 145.80216 246.845219
L 147.54312 247.009037
L 151.02504 246.899825
L 152.766 247.009037
L 155.37744 247.009037
L 156.24792 246.845219
L 157.98888 246.899825
L 158.85936 183.284155
L 159.72984 170.561021
L 163.21176 170.014963
L 165.8232 169.79654
L 171.91656 169.905752
L 174.528 169.960358
L 178.00992 170.069569
L 180.62136 170.124175
L 191.06712 170.178781
L 191.9376 196.935586
L 192.80808 246.135345
L 193.67856 246.299162
L 194.54904 246.736008
L 196.29 246.954431
L 197.16048 246.954431
L 198.03096 247.118248
L 198.90144 247.063642
L 199.77192 247.172854
L 202.38336 247.118248
L 204.12432 247.118248
L 204.9948 247.009037
L 205.86528 247.118248
L 206.73576 247.009037
L 207.60624 247.063642
L 208.47672 246.954431
L 209.3472 246.353768
L 210.21768 247.664305
L 211.08816 247.22746
L 212.82912 246.954431
L 213.6996 247.063642
L 215.44056 246.845219
L 216.31104 246.954431
L 218.052 246.954431
L 219.79296 246.899825
L 220.66344 246.736008
L 225.01584 246.899825
L 225.88632 181.372954
L 226.7568 170.724838
L 227.62728 170.342598
L 229.36824 170.069569
L 230.23872 169.851146
L 233.72064 169.741935
L 236.33208 169.79654
L 238.07304 169.79654
L 241.55496 169.905752
L 243.29592 169.851146
L 245.03688 170.069569
L 248.5188 169.960358
L 252.00072 170.069569
L 253.74168 170.014963
L 257.2236 170.124175
L 258.09408 170.069569
L 258.96456 198.573758
L 259.83504 246.189951
L 260.70552 246.189951
L 261.576 246.736008
L 263.31696 247.009037
L 265.9284 247.118248
L 266.79888 247.063642
L 268.53984 247.22746
L 269.41032 247.063642
L 270.2808 247.118248
L 271.15128 246.954431
L 282.46752 246.845219
L 283.338 246.790614
L 285.07896 246.899825
L 290.30184 246.681402
L 292.0428 246.736008
L 292.91328 215.883773
L 293.78376 170.724838
L 294.65424 170.724838
L 296.3952 170.014963
L 297.26568 169.960358
L 298.13616 169.632723
L 299.00664 169.741935
L 299.87712 169.687329
L 301.61808 169.851146
L 304.22952 169.741935
L 307.71144 169.905752
L 308.58192 169.79654
L 309.4524 169.905752
L 310.32288 169.851146
L 311.19336 169.960358
L 312.06384 169.905752
L 312.93432 170.014963
L 315.54576 169.960358
L 325.12104 170.069569
L 325.99152 199.993507
L 326.862 246.080739
L 327.73248 246.080739
L 328.60296 246.517585
L 330.34392 246.845219
L 333.82584 247.009037
L 335.5668 247.009037
L 339.9192 246.954431
L 340.78968 246.681402
L 341.66016 246.681402
L 342.53064 247.063642
L 346.01256 246.736008
L 348.624 246.845219
L 352.10592 246.681402
L 353.84688 246.736008
L 357.3288 246.626797
L 359.06976 246.626797
L 359.94024 214.354813
L 360.81072 170.506415
L 361.6812 170.561021
L 363.42216 169.851146
L 368.64504 169.632723
L 371.25648 169.741935
L 372.12696 169.79654
L 373.86792 169.687329
L 375.60888 169.687329
L 379.96128 169.905752
L 382.57272 169.79654
L 383.4432 169.960358
L 385.18416 169.851146
L 386.92512 169.851146
L 389.53656 169.851146
L 389.53656 169.851146
" style="fill:none;stroke:#1f77b4;stroke-linecap:square;stroke-width:1.5;"/>
   </g>
   <g id="patch_8">
    <path d="M 54 252
L 54 165.024
" style="fill:none;stroke:#666666;stroke-linecap:square;stroke-linejoin:miter;stroke-width:0.8;"/>
   </g>
   <g id="patch_9">
    <path d="M 388.8 252
L 388.8 165.024
" style="fill:none;stroke:#666666;stroke-linecap:square;stroke-linejoin:miter;stroke-width:0.8;"/>
   </g>
   <g id="patch_10">
    <path d="M 54 252
L 388.8 252
" style="fill:none;stroke:#666666;stroke-linecap:square;stroke-linejoin:miter;stroke-width:0.8;"/>
   </g>
   <g id="patch_11">
    <path d="M 54 165.024
L 388.8 165.024
" style="fill:none;stroke:#666666;stroke-linecap:square;stroke-linejoin:miter;stroke-width:0.8;"/>
   </g>
  </g>
 </g>
 <defs>
  <clipPath id="p699f8b456a">
   <rect height="86.976" width="334.8" x="54" y="34.56"/>
  </clipPath>
  <clipPath id="p0f687d4eeb">
   <rect height="86.976" width="334.8" x="54" y="165.024"/>
  </clipPath>
 </defs>
</svg>
